<svg xmlns="http://www.w3.org/2000/svg" xmlns:xlink="http://www.w3.org/1999/xlink" viewBox="0 0 508.62 508.83"><defs><style>.cls-1{fill:none;}.cls-2{clip-path:url(#clip-path);}.cls-3{font-size:33px;}.cls-10,.cls-11,.cls-12,.cls-13,.cls-14,.cls-15,.cls-16,.cls-17,.cls-18,.cls-19,.cls-20,.cls-21,.cls-22,.cls-23,.cls-24,.cls-25,.cls-26,.cls-27,.cls-28,.cls-29,.cls-3,.cls-30,.cls-31,.cls-32,.cls-4,.cls-5,.cls-6,.cls-7,.cls-8,.cls-9{fill:#f00;}.cls-10,.cls-11,.cls-13,.cls-14,.cls-15,.cls-16,.cls-17,.cls-18,.cls-19,.cls-20,.cls-21,.cls-22,.cls-23,.cls-24,.cls-25,.cls-26,.cls-27,.cls-28,.cls-29,.cls-3,.cls-30,.cls-31,.cls-32,.cls-4,.cls-5,.cls-6,.cls-7,.cls-8,.cls-9{font-family:CHANEY-Regular, CHANEY;}.cls-4{font-size:33px;}.cls-5{font-size:33px;}.cls-6{font-size:33px;}.cls-7{font-size:33px;}.cls-8{font-size:33px;}.cls-9{font-size:33px;}.cls-10{font-size:33px;}.cls-11{font-size:33px;}.cls-13{font-size:33px;}.cls-14{font-size:33px;}.cls-15{font-size:33px;}.cls-16{font-size:33px;}.cls-17{font-size:33px;}.cls-18{font-size:33px;}.cls-19{font-size:33px;}.cls-20{font-size:33px;}.cls-21{font-size:33px;}.cls-22{font-size:33px;}.cls-23{font-size:33px;}.cls-24{font-size:33px;}.cls-25{font-size:33px;}.cls-26{font-size:33px;}.cls-27{font-size:33px;}.cls-28{font-size:33px;}.cls-29{font-size:36.83px;}.cls-30{font-size:33px;}.cls-31{font-size:33px;}.cls-32{font-size:33px;}</style><clipPath id="clip-path" transform="translate(-4.82 -4.68)"><rect class="cls-1" width="518.22" height="518.2"/></clipPath></defs><title>Ativo 2</title><g id="Camada_2" data-name="Camada 2"><g id="Camada_1-2" data-name="Camada 1"><g class="cls-2"><g class="cls-2"><text class="cls-3" transform="translate(258.95 23.04) rotate(4.22)">R</text><text class="cls-4" transform="matrix(0.98, 0.18, -0.18, 0.98, 281.66, 24.53)">O</text></g><text class="cls-5" transform="translate(306.16 28.82) rotate(16.08)">J</text><text class="cls-6" transform="matrix(0.93, 0.38, -0.38, 0.93, 328.28, 35.01)">O</text><text class="cls-7" transform="translate(351.42 44.63) rotate(26.05)"> </text><text class="cls-8" transform="matrix(0.87, 0.5, -0.5, 0.87, 357.97, 47.46)">P</text><text class="cls-9" transform="matrix(0.81, 0.58, -0.58, 0.81, 377.58, 58.5)">U</text><text class="cls-10" transform="translate(396.88 72.14) rotate(41.16)">B</text><text class="cls-11" transform="translate(413.89 86.96) rotate(46.27)">L</text><polygon class="cls-12" points="450.57 103.09 442.46 109.53 447.25 115.55 442.27 119.51 428.18 101.8 433.16 97.84 437.94 103.86 446.05 97.41 441.27 91.39 446.25 87.43 460.34 105.14 455.36 109.1 450.57 103.09"/><text class="cls-10" transform="matrix(0.54, 0.84, -0.84, 0.54, 442.23, 119.25)">C</text><polygon class="cls-12" points="477.96 147.54 468.68 152.15 472.1 159.04 466.39 161.87 456.32 141.6 462.03 138.76 465.45 145.65 474.73 141.04 471.31 134.15 477.01 131.32 487.08 151.6 481.38 154.43 477.96 147.54"/><text class="cls-13" transform="translate(466.24 161.32) rotate(69.44)">D</text><text class="cls-7" transform="translate(474.04 181.57) rotate(74.92)">A</text><g class="cls-2"><text class="cls-14" transform="translate(480.28 204.3) rotate(80.73)">D</text><text class="cls-15" transform="matrix(0.07, 1, -1, 0.07, 484.03, 227.03)">E</text><text class="cls-16" transform="translate(485.27 246.8) rotate(89.07)"> </text><text class="cls-5" transform="translate(485.46 254.02) rotate(91.54)">•</text><text class="cls-17" transform="translate(485.17 265.23) rotate(93.8)"> </text><text class="cls-18" transform="translate(485.05 272.34) rotate(97.58)">T</text><text class="cls-19" transform="matrix(-0.22, 0.98, -0.98, -0.22, 482.59, 292.7)">A</text></g><text class="cls-7" transform="translate(477.49 315.69) rotate(108.38)">K</text><text class="cls-20" transform="matrix(-0.4, 0.92, -0.92, -0.4, 470.59, 336.64)">E</text><text class="cls-5" transform="translate(462.56 354.73) rotate(116.94)"> </text><text class="cls-3" transform="matrix(-0.51, 0.86, -0.86, -0.51, 459.66, 361.23)">T</text><text class="cls-21" transform="translate(447.8 381.42) rotate(126.56)">H</text><text class="cls-22" transform="translate(433.74 400.42) rotate(131.89)">E</text><text class="cls-23" transform="matrix(-0.71, 0.7, -0.7, -0.71, 420.43, 415.09)"> </text><text class="cls-5" transform="translate(415.6 420.34) rotate(138.92)">R</text><text class="cls-16" transform="matrix(-0.81, 0.59, -0.59, -0.81, 398.44, 435.36)">E</text><text class="cls-16" transform="matrix(-0.86, 0.51, -0.51, -0.86, 382.63, 447.02)">D</text><text class="cls-20" transform="matrix(-0.89, 0.45, -0.45, -0.89, 362.61, 458.63)"> </text><text class="cls-4" transform="translate(356.39 462.14) rotate(156.9)">P</text><polygon class="cls-12" points="324.93 492.02 321.83 482.13 314.49 484.43 312.59 478.35 334.2 471.59 336.1 477.67 328.76 479.96 331.86 489.85 339.19 487.56 341.1 493.63 319.49 500.4 317.59 494.32 324.93 492.02"/><g class="cls-2"><text class="cls-19" transform="matrix(-0.98, 0.21, -0.21, -0.98, 313.39, 478.11)">L</text><text class="cls-15" transform="matrix(-0.99, 0.13, -0.13, -0.99, 294.85, 482.18)">L</text><text class="cls-19" transform="translate(275.87 484.53) rotate(175.88)"> </text><text class="cls-24" transform="matrix(-1, 0.03, -0.03, -1, 268.63, 485.14)">•</text><text class="cls-16" transform="translate(257.5 485.55) rotate(-179.07)"> </text><text class="cls-25" transform="translate(250.32 485.79) rotate(-175.94)">R</text><text class="cls-16" transform="translate(227.61 484.36) rotate(-170.05)">O</text></g><text class="cls-9" transform="matrix(-0.96, -0.27, 0.27, -0.96, 203.09, 480.15)">J</text><text class="cls-26" transform="translate(180.94 474.02) rotate(-158.12)">O</text><text class="cls-24" transform="translate(157.8 464.47) rotate(-154.11)"> </text><text class="cls-24" transform="translate(151.26 461.67) rotate(-150.41)">P</text><text class="cls-26" transform="matrix(-0.82, -0.58, 0.58, -0.82, 131.6, 450.68)">U</text><text class="cls-9" transform="matrix(-0.75, -0.66, 0.66, -0.75, 112.24, 437.09)">B</text><text class="cls-9" transform="translate(95.21 422.33) rotate(-133.9)">L</text><polygon class="cls-12" points="58.48 406.33 66.56 399.85 61.76 393.85 66.73 389.87 80.88 407.54 75.91 411.52 71.1 405.52 63.02 411.99 67.82 418 62.85 421.98 48.7 404.31 53.67 400.33 58.48 406.33"/><text class="cls-15" transform="translate(66.78 390.14) rotate(-122.57)">C</text><polygon class="cls-12" points="30.95 361.93 40.22 357.3 36.78 350.42 42.47 347.57 52.61 367.81 46.91 370.66 43.47 363.79 34.2 368.43 37.65 375.3 31.95 378.15 21.82 357.91 27.51 355.06 30.95 361.93"/><text class="cls-25" transform="translate(42.63 348.1) rotate(-110.73)">D</text><text class="cls-25" transform="translate(34.77 327.88) rotate(-105.24)">A</text><g class="cls-2"><text class="cls-26" transform="matrix(-0.16, -0.99, 0.99, -0.16, 28.47, 305.2)">D</text><text class="cls-27" transform="translate(24.65 282.48) rotate(-94.17)">E</text><text class="cls-16" transform="translate(23.33 262.7) rotate(-90.93)"> </text><text class="cls-5" transform="translate(23.14 255.47) rotate(-88.63)">•</text><text class="cls-26" transform="translate(23.4 244.28) rotate(-86.37)"> </text><text class="cls-27" transform="translate(23.5 237.16) rotate(-82.59)">T</text><text class="cls-19" transform="translate(25.9 216.79) rotate(-77.47)">A</text></g><text class="cls-20" transform="translate(30.92 193.79) rotate(-71.79)">K</text><text class="cls-22" transform="translate(37.76 172.83) rotate(-66.59)">E</text><text class="cls-3" transform="matrix(0.45, -0.89, 0.89, 0.45, 45.74, 154.69)"> </text><text class="cls-11" transform="translate(48.63 148.19) rotate(-59.42)">T</text><text class="cls-28" transform="translate(60.42 127.96) rotate(-53.61)">H</text><text class="cls-29" transform="matrix(0.68, -0.72, 0.76, 0.65, 76.88, 108.43)">E</text><text class="cls-30" transform="matrix(0.71, -0.71, 0.71, 0.71, 87.71, 94.21)"> </text><text class="cls-17" transform="matrix(0.75, -0.66, 0.66, 0.75, 92.5, 88.96)">R</text><text class="cls-17" transform="translate(109.62 73.89) rotate(-36.02)">E</text><text class="cls-16" transform="matrix(0.86, -0.51, 0.51, 0.86, 125.39, 62.19)">D</text><text class="cls-13" transform="matrix(0.89, -0.45, 0.45, 0.89, 145.41, 50.5)"> </text><text class="cls-25" transform="translate(151.57 46.99) rotate(-23.28)">P</text><polygon class="cls-12" points="182.99 17 186.11 26.88 193.44 24.56 195.36 30.63 173.78 37.46 171.86 31.39 179.19 29.07 176.06 19.19 168.73 21.51 166.81 15.43 188.4 8.61 190.32 14.68 182.99 17"/><text class="cls-31" transform="matrix(0.98, -0.21, 0.21, 0.98, 194.56, 30.88)">L</text><text class="cls-32" transform="translate(213.08 26.75) rotate(-7.54)">L</text><text class="cls-5" transform="translate(232.04 24.35) rotate(-4.29)"> </text><text class="cls-21" transform="matrix(1, -0.04, 0.04, 1, 239.27, 23.72)">•</text></g></g></g></svg>