<svg xmlns="http://www.w3.org/2000/svg" xmlns:xlink="http://www.w3.org/1999/xlink" viewBox="0 0 508.45 508.6"><defs><style>.cls-1{fill:none;}.cls-2{isolation:isolate;}.cls-3{fill:red;}.cls-4{clip-path:url(#clip-path);}</style><clipPath id="clip-path" transform="translate(-4.94 -4.8)"><rect class="cls-1" width="518.22" height="518.2"/></clipPath></defs><title>Ativo 1</title><g id="Camada_2" data-name="Camada 2"><g id="Camada_1-2" data-name="Camada 1"><g class="cls-2"><path class="cls-3" d="M364.22,53l11.55-20.1,11,6.29a11.47,11.47,0,0,1,3.15,2.62A8.89,8.89,0,0,1,391.61,45a8.66,8.66,0,0,1-.82,6.82,8.61,8.61,0,0,1-2.35,2.66A8.77,8.77,0,0,1,385.31,56a8.93,8.93,0,0,1-3.66.12,11.51,11.51,0,0,1-3.85-1.4L373.18,52l-2.64,4.58Zm12.15-6.5L381,49.12a2.46,2.46,0,0,0,1.93.25,2.52,2.52,0,0,0,1.55-1.2,2.53,2.53,0,0,0-.94-3.47L378.9,42Z" transform="translate(-4.94 -4.8)"/></g><g class="cls-2"><path class="cls-3" d="M389.83,55.61l7.3-10.19L403,49.63l-6.92,9.66a5.2,5.2,0,0,0-1.1,3.25,3.71,3.71,0,0,0,1.79,2.85l.08.06a3.72,3.72,0,0,0,3.28.78,5.15,5.15,0,0,0,2.71-2.1l6.92-9.66,5.89,4.22-7.3,10.19c-2.05,2.86-4.44,4.47-7.15,4.83s-5.52-.51-8.42-2.59l-.08-.05q-4.34-3.12-5.15-7.14T389.83,55.61Z" transform="translate(-4.94 -4.8)"/></g><g class="cls-2"><path class="cls-3" d="M402.94,77.9l15.2-17.39,11.29,9.86a7.39,7.39,0,0,1,.7,10.43,5.89,5.89,0,0,1-3.93,2,6.22,6.22,0,0,1-1.56,4.23,7.35,7.35,0,0,1-10.42.68Zm9.55-.13,5,4.36a1.21,1.21,0,0,0,.91.31,1.23,1.23,0,0,0,.88-.44,1.3,1.3,0,0,0,.3-.91,1.21,1.21,0,0,0-.42-.91l-5-4.34Zm5.25-6,5.07,4.43a1,1,0,0,0,.83.26,1.17,1.17,0,0,0,.81-.4,1.15,1.15,0,0,0,.3-.86,1.08,1.08,0,0,0-.38-.78L419.3,70Z" transform="translate(-4.94 -4.8)"/></g><g class="cls-2"><path class="cls-3" d="M419.85,92.83l16.69-16,5,5.25L429.48,93.67l7.51,7.85-4.61,4.41Z" transform="translate(-4.94 -4.8)"/></g><polygon class="cls-3" points="450.45 102.97 442.34 109.41 447.13 115.43 442.15 119.39 428.06 101.68 433.04 97.72 437.82 103.74 445.93 97.29 441.15 91.27 446.13 87.31 460.22 105.02 455.24 108.98 450.45 102.97"/><g class="cls-2"><path class="cls-3" d="M452.93,123.29a12.68,12.68,0,0,1,10.47-6.78,11,11,0,0,1,6,1.51,14,14,0,0,1,4.79,4.7l0,.08a13,13,0,0,1,2.26,8.73,10.94,10.94,0,0,1-4.14,7.41l-4.07-6.32a5.17,5.17,0,0,0,1.15-3,5.23,5.23,0,0,0-.88-3.21l0-.08A5.19,5.19,0,0,0,465.2,124a5.46,5.46,0,0,0-6.27,4,5.24,5.24,0,0,0,.84,4l.06.08a5.22,5.22,0,0,0,2.55,2.14,5,5,0,0,0,3.16.18l4.07,6.32a11,11,0,0,1-8.46.69,13,13,0,0,1-7-5.67l-.05-.08a14.06,14.06,0,0,1-2.25-6.25A11.09,11.09,0,0,1,452.93,123.29Z" transform="translate(-4.94 -4.8)"/></g><polygon class="cls-3" points="477.84 147.42 468.56 152.03 471.98 158.92 466.27 161.75 456.2 141.48 461.91 138.64 465.33 145.53 474.61 140.92 471.19 134.03 476.89 131.2 486.96 151.48 481.26 154.31 477.84 147.42"/><g class="cls-2"><path class="cls-3" d="M471.64,167.54l21.63-8.12,3.57,9.53a14.79,14.79,0,0,1,1,6.57,10.84,10.84,0,0,1-2.17,5.67,12.07,12.07,0,0,1-11.5,4.31,10.79,10.79,0,0,1-5.38-2.84,14.68,14.68,0,0,1-3.58-5.59Zm8.52,4.56,1,2.74a5.38,5.38,0,0,0,2.76,3,4.87,4.87,0,0,0,4,.13,5,5,0,0,0,2.92-2.71,5.26,5.26,0,0,0,.05-4.07l-1-2.74Z" transform="translate(-4.94 -4.8)"/></g><g class="cls-2"><path class="cls-3" d="M478.94,186.56l23.88-.2,3.46,12.84-20.73,11.9-1.91-7.1,3.28-1.88-2.29-8.51-3.78,0Zm12.34,7,1.42,5.28,5.94-3.4-.52-1.94Z" transform="translate(-4.94 -4.8)"/></g><g class="cls-2"><path class="cls-3" d="M481.79,321.93l21.93,7.29-2.29,6.89-7.77-2.58-1,3.07,6.56,6.21-2.48,7.46-9.23-8.84L474.8,343l2.47-7.47,9.41-1.12,1-2.87-8.14-2.7Z" transform="translate(-4.94 -4.8)"/></g><g class="cls-2"><path class="cls-3" d="M474.75,342.83,496,352.08l-7.53,17.31-5.78-2.51,4.62-10.63-2.12-.92-3.72,8.55L476,361.47l3.72-8.55-2-.89L473,362.66l-5.79-2.51Z" transform="translate(-4.94 -4.8)"/></g><g class="cls-2"><path class="cls-3" d="M478,375.87l5.48,3.25L472,398.58l-5.49-3.26,3.91-6.59L456,380.2l3.7-6.25,14.39,8.53Z" transform="translate(-4.94 -4.8)"/></g><g class="cls-2"><path class="cls-3" d="M451.64,387.42l18.56,13.76L465.87,407l-6.5-4.82-4.95,6.68,6.5,4.82-4.33,5.84L438,405.77l4.33-5.83,6.89,5.1,4.95-6.68-6.89-5.1Z" transform="translate(-4.94 -4.8)"/></g><g class="cls-2"><path class="cls-3" d="M437.46,406.32l17.2,15.43-12.56,14-4.68-4.19,7.71-8.6-1.71-1.54-6.21,6.92-4.47-4,6.2-6.93-1.65-1.48-7.72,8.6-4.67-4.2Z" transform="translate(-4.94 -4.8)"/></g><g class="cls-2"><path class="cls-3" d="M419.18,426.1l15.18,17.42-9.47,8.26a11.28,11.28,0,0,1-3.49,2.11,8.92,8.92,0,0,1-3.59.6,8.73,8.73,0,0,1-3.35-.85,8.45,8.45,0,0,1-2.81-2.14,8.69,8.69,0,0,1-2-3.84,8.52,8.52,0,0,1,.14-4.28l-8-2.19,6.34-5.53,5.84,1.9,3.12-2.71-3.47-4Zm2.18,13.56-4,3.48a2.52,2.52,0,0,0-.24,3.58,2.4,2.4,0,0,0,1.74.87,2.46,2.46,0,0,0,1.83-.63l4-3.48Z" transform="translate(-4.94 -4.8)"/></g><g class="cls-2"><path class="cls-3" d="M401.93,441l13.63,18.72-15.24,11.1-3.71-5.09,9.36-6.82-1.36-1.86-7.53,5.48-3.55-4.87,7.53-5.48-1.31-1.8-9.36,6.81-3.71-5.09Z" transform="translate(-4.94 -4.8)"/></g><g class="cls-2"><path class="cls-3" d="M204.12,494.66l-7-2q1.13-4-2.84-5.1l-.09,0c-2.64-.74-4.34.21-5.08,2.87l-1.68,6,11.94,3.35-1.72,6.13-18.92-5.32,3.4-12.08q1.44-5.16,5.08-7t8.81-.41l.09,0q5.21,1.47,7.34,4.88T204.12,494.66Z" transform="translate(-4.94 -4.8)"/></g><g class="cls-2"><path class="cls-3" d="M181.33,482.63a11.81,11.81,0,0,1-.79,6.42,12,12,0,0,1-3.83,5.19,11,11,0,0,1-5.75,2.23,14.18,14.18,0,0,1-6.64-1.06l-.09,0a14,14,0,0,1-5.53-3.83,10.94,10.94,0,0,1-2.6-5.58,11.84,11.84,0,0,1,.82-6.39,12,12,0,0,1,3.83-5.21,10.91,10.91,0,0,1,5.75-2.23,14,14,0,0,1,6.63,1.07l.09,0a13.88,13.88,0,0,1,5.46,3.79A11.24,11.24,0,0,1,181.33,482.63Zm-7.65,3.67a5,5,0,0,0,0-4,5.19,5.19,0,0,0-3-2.76l-.09,0a5.2,5.2,0,0,0-4.09-.08,5.47,5.47,0,0,0-2.77,6.92,5.18,5.18,0,0,0,3,2.77l.09,0a5.22,5.22,0,0,0,4.08.07A5,5,0,0,0,173.68,486.3Z" transform="translate(-4.94 -4.8)"/></g><g class="cls-2"><path class="cls-3" d="M154.65,465.54l-11.41,20.09-10.94-6.21a11.24,11.24,0,0,1-3.15-2.6,9,9,0,0,1-1.76-3.19,8.83,8.83,0,0,1-.31-3.44,8.64,8.64,0,0,1,1.1-3.36,8.81,8.81,0,0,1,5.44-4.17,9.19,9.19,0,0,1,3.64-.13,11.12,11.12,0,0,1,3.84,1.38l4.63,2.62,2.6-4.58Zm-12.07,6.54L138,469.46a2.39,2.39,0,0,0-1.92-.24,2.42,2.42,0,0,0-1.53,1.2,2.5,2.5,0,0,0,.95,3.45l4.62,2.62Z" transform="translate(-4.94 -4.8)"/></g><g class="cls-2"><path class="cls-3" d="M129,463l-7.3,10.32-6-4.22,6.92-9.78a5.21,5.21,0,0,0,1.09-3.28,3.72,3.72,0,0,0-1.82-2.86l-.08-.06a3.74,3.74,0,0,0-3.31-.77,5.26,5.26,0,0,0-2.73,2.13l-6.91,9.78-6-4.22,7.3-10.31q3.08-4.35,7.17-4.91t8.5,2.55l.08.06q4.41,3.11,5.24,7.17T129,463Z" transform="translate(-4.94 -4.8)"/></g><g class="cls-2"><path class="cls-3" d="M115.83,440.68,100.58,458l-11.24-9.89a7.37,7.37,0,0,1-.67-10.42,5.88,5.88,0,0,1,3.93-2,6.22,6.22,0,0,1,1.57-4.22,7.36,7.36,0,0,1,10.42-.65ZM101,446.76l-5-4.44a1.06,1.06,0,0,0-.83-.26,1.1,1.1,0,0,0-.81.4,1.13,1.13,0,0,0-.3.85,1,1,0,0,0,.38.78l5,4.45Zm5.27-6-5-4.37a1.21,1.21,0,0,0-.91-.31,1.23,1.23,0,0,0-.88.44,1.27,1.27,0,0,0-.3.91,1.2,1.2,0,0,0,.42.9l4.94,4.35Z" transform="translate(-4.94 -4.8)"/></g><g class="cls-2"><path class="cls-3" d="M98.89,425.83l-16.65,16-5-5.24,12-11.6-7.53-7.82,4.6-4.43Z" transform="translate(-4.94 -4.8)"/></g><polygon class="cls-3" points="58.36 406.21 66.44 399.73 61.64 393.73 66.61 389.75 80.76 407.42 75.79 411.4 70.98 405.4 62.9 411.87 67.7 417.88 62.73 421.86 48.58 404.19 53.55 400.21 58.36 406.21"/><g class="cls-2"><path class="cls-3" d="M65.71,395.45a12.73,12.73,0,0,1-10.5,6.75,11,11,0,0,1-6-1.52A14,14,0,0,1,44.45,396l-.06-.08a13.07,13.07,0,0,1-2.23-8.75,10.94,10.94,0,0,1,4.17-7.4l4.05,6.34A5.07,5.07,0,0,0,49.23,389a5.18,5.18,0,0,0,.87,3.22l0,.08a5.17,5.17,0,0,0,3.28,2.42,5.44,5.44,0,0,0,6.28-4,5.2,5.2,0,0,0-.83-4l-.05-.08a5.24,5.24,0,0,0-2.55-2.15,5.06,5.06,0,0,0-3.17-.18l-4-6.35a11,11,0,0,1,8.47-.67,13.11,13.11,0,0,1,7,5.71l0,.08a13.92,13.92,0,0,1,2.24,6.25A11.26,11.26,0,0,1,65.71,395.45Z" transform="translate(-4.94 -4.8)"/></g><polygon class="cls-3" points="30.83 361.81 40.1 357.18 36.66 350.3 42.35 347.45 52.49 367.69 46.79 370.54 43.35 363.67 34.08 368.31 37.53 375.18 31.83 378.03 21.7 357.79 27.39 354.94 30.83 361.81"/><g class="cls-2"><path class="cls-3" d="M46.87,351.24l-21.61,8.18-3.6-9.51a14.86,14.86,0,0,1-1-6.57,10.83,10.83,0,0,1,2.16-5.68A11.16,11.16,0,0,1,28,333.92a11.24,11.24,0,0,1,6.33-.6,10.87,10.87,0,0,1,5.39,2.82,14.76,14.76,0,0,1,3.6,5.59Zm-8.54-4.54-1-2.73a5.41,5.41,0,0,0-2.76-3,5.23,5.23,0,0,0-6.87,2.61,5.17,5.17,0,0,0,0,4.07l1,2.73Z" transform="translate(-4.94 -4.8)"/></g><g class="cls-2"><path class="cls-3" d="M39.51,332.25l-23.88.26-3.5-12.83,20.69-11.95,1.94,7.09-3.28,1.89,2.32,8.51,3.78,0Zm-12.36-6.93-1.44-5.27-5.92,3.42.52,1.93Z" transform="translate(-4.94 -4.8)"/></g><g class="cls-2"><path class="cls-3" d="M36.25,196.91,14.3,189.69l2.28-6.91,7.77,2.56,1-3.07-6.58-6.19,2.46-7.47,9.26,8.82,12.69-1.6-2.46,7.47-9.4,1.15-.95,2.88L38.53,190Z" transform="translate(-4.94 -4.8)"/></g><g class="cls-2"><path class="cls-3" d="M43.23,176,22,166.82l7.48-17.27,5.76,2.5-4.59,10.6,2.12.92L36.49,155,42,157.42,38.31,166l2,.89,4.59-10.61,5.77,2.5Z" transform="translate(-4.94 -4.8)"/></g><g class="cls-2"><path class="cls-3" d="M39.9,142.93l-5.5-3.24,11.51-19.48,5.49,3.25-3.9,6.6,14.4,8.51-3.7,6.25-14.39-8.5Z" transform="translate(-4.94 -4.8)"/></g><g class="cls-2"><path class="cls-3" d="M66.22,131.32,47.61,117.61l4.32-5.85,6.51,4.8,4.93-6.7-6.51-4.79,4.31-5.85,18.6,13.7-4.31,5.85-6.9-5.08-4.93,6.69,6.9,5.09Z" transform="translate(-4.94 -4.8)"/></g><g class="cls-2"><path class="cls-3" d="M83,111.79,63.35,95,77.63,79.9,83,84.46l-8.77,9.29,2,1.67,7-7.47,5.1,4.36-7,7.47,1.88,1.61,8.77-9.28,5.33,4.56Z" transform="translate(-4.94 -4.8)"/></g><g class="cls-2"><path class="cls-3" d="M98.55,92.56,83.3,75.23l9.43-8.3a11.19,11.19,0,0,1,3.48-2.13,8.86,8.86,0,0,1,3.58-.61,8.7,8.7,0,0,1,6.17,3,8.71,8.71,0,0,1,2,3.82,8.52,8.52,0,0,1-.13,4.28l8,2.15L109.46,83l-5.83-1.87-3.1,2.73,3.47,4ZM96.31,79l4-3.49a2.45,2.45,0,0,0,.85-1.74,2.48,2.48,0,0,0-.63-1.85,2.53,2.53,0,0,0-3.57-.22l-4,3.49Z" transform="translate(-4.94 -4.8)"/></g><g class="cls-2"><path class="cls-3" d="M115.77,77.6,102.18,58.92,117.4,47.85l3.7,5.08-9.35,6.79,1.36,1.87,7.52-5.47L124.16,61l-7.52,5.47,1.31,1.8,9.35-6.8L131,66.54Z" transform="translate(-4.94 -4.8)"/></g><g class="cls-2"><path class="cls-3" d="M131.62,66,119.84,46.16,128.59,41a15,15,0,0,1,6.29-2.13,10.92,10.92,0,0,1,6,1.14,12.08,12.08,0,0,1,6.27,10.56,10.84,10.84,0,0,1-1.86,5.8,14.66,14.66,0,0,1-4.88,4.5Zm3-9.19,2.52-1.49a5.44,5.44,0,0,0,2.49-3.25,5.21,5.21,0,0,0-3.75-6.31,5.17,5.17,0,0,0-4,.66l-2.52,1.49Z" transform="translate(-4.94 -4.8)"/></g><g class="cls-2"><path class="cls-3" d="M157.9,51l-9.13-21.23,11.56-5a11.1,11.1,0,0,1,4-.94,9.14,9.14,0,0,1,3.6.52,8.71,8.71,0,0,1,2.93,1.83,8.61,8.61,0,0,1,2,2.9,8.76,8.76,0,0,1,0,6.86,8.93,8.93,0,0,1-2.1,3,11.22,11.22,0,0,1-3.41,2.24l-4.89,2.1,2.09,4.84ZM160,37.45l4.89-2.11A2.41,2.41,0,0,0,166.21,34a2.45,2.45,0,0,0,0-2,2.42,2.42,0,0,0-1.39-1.36,2.49,2.49,0,0,0-1.93,0L158,32.78Z" transform="translate(-4.94 -4.8)"/></g><polygon class="cls-3" points="182.87 16.88 185.99 26.76 193.32 24.44 195.24 30.51 173.66 37.34 171.74 31.27 179.07 28.95 175.94 19.07 168.61 21.39 166.69 15.31 188.28 8.49 190.2 14.56 182.87 16.88"/><g class="cls-2"><path class="cls-3" d="M201,35.21l-4.85-22.64L203.26,11l3.51,16.39,10.64-2.28,1.35,6.26Z" transform="translate(-4.94 -4.8)"/></g><g class="cls-4"><g class="cls-2"><path class="cls-3" d="M265.41,27.84l1.7-23,12.54.92a11.26,11.26,0,0,1,4,1,9.07,9.07,0,0,1,2.95,2.13,8.9,8.9,0,0,1,1.75,3,8.86,8.86,0,0,1-.9,7.6,8.38,8.38,0,0,1-3.14,2.91l4,7.2-8.39-.62-2.75-5.48L273,23.12l-.38,5.26Zm8.1-11.08,5.29.39a2.54,2.54,0,0,0,2.1-4.2,2.42,2.42,0,0,0-1.73-.86l-5.28-.39Z" transform="translate(-4.94 -4.8)"/></g><g class="cls-2"><path class="cls-3" d="M290,24.49a11.86,11.86,0,0,1-.5-6.43,12,12,0,0,1,2.71-5.82,10.94,10.94,0,0,1,5.18-3.31,14,14,0,0,1,6.7-.28h.09a14.23,14.23,0,0,1,6.16,2.64A11,11,0,0,1,314,16.24a12,12,0,0,1,.46,6.41,12,12,0,0,1-2.71,5.84,10.9,10.9,0,0,1-5.17,3.32,14.11,14.11,0,0,1-6.69.27h-.09a14.11,14.11,0,0,1-6.09-2.62A11.2,11.2,0,0,1,290,24.49Zm6.75-5.09a5,5,0,0,0,.77,3.92A5.13,5.13,0,0,0,301,25.43l.09,0a5.21,5.21,0,0,0,4-.73,5.07,5.07,0,0,0,2.11-3.4,5,5,0,0,0-.78-3.91A5.17,5.17,0,0,0,303,15.3l-.1,0a5.21,5.21,0,0,0-4,.74A5,5,0,0,0,296.77,19.4Z" transform="translate(-4.94 -4.8)"/></g></g><g class="cls-2"><path class="cls-3" d="M314.84,23.66l7,2q-1.15,4,2.81,5.14l.1,0q4,1.14,5.11-2.84l1.72-6-11.95-3.45,1.76-6.13,18.94,5.46L336.82,30q-1.49,5.16-5.13,7t-8.84.34l-.09,0q-5.22-1.5-7.33-4.93T314.84,23.66Z" transform="translate(-4.94 -4.8)"/></g><g class="cls-2"><path class="cls-3" d="M337.57,35.76a11.91,11.91,0,0,1,.83-6.44,12,12,0,0,1,3.88-5.18,11,11,0,0,1,5.79-2.21A14.21,14.21,0,0,1,354.74,23l.09,0A14.26,14.26,0,0,1,360.36,27a11,11,0,0,1,2.58,5.63,11.93,11.93,0,0,1-.86,6.41,12.08,12.08,0,0,1-3.88,5.21,11,11,0,0,1-5.79,2.21,14.19,14.19,0,0,1-6.66-1.11l-.09,0a14,14,0,0,1-5.46-3.84A11.25,11.25,0,0,1,337.57,35.76Zm7.71-3.63a5,5,0,0,0,0,4,5.19,5.19,0,0,0,3,2.8l.09,0a5.19,5.19,0,0,0,4.1.1,5.07,5.07,0,0,0,2.78-2.92,5,5,0,0,0,0-4,5.22,5.22,0,0,0-3-2.81l-.09,0a5.2,5.2,0,0,0-4.09-.09A5,5,0,0,0,345.28,32.13Z" transform="translate(-4.94 -4.8)"/></g><g class="cls-4"><g class="cls-2"><path class="cls-3" d="M485.36,210.6l22.81-3.72,1.64,10a15,15,0,0,1-.31,6.64,10.86,10.86,0,0,1-3.24,5.13,12.06,12.06,0,0,1-12.12,2,10.84,10.84,0,0,1-4.72-3.84,14.76,14.76,0,0,1-2.42-6.19Zm7.47,6.15.47,2.88a5.43,5.43,0,0,0,2.11,3.51,5.23,5.23,0,0,0,7.26-1.19,5.18,5.18,0,0,0,.84-4l-.47-2.89Z" transform="translate(-4.94 -4.8)"/></g><g class="cls-2"><path class="cls-3" d="M489,233.35l23.1-1.61,1.32,18.82-6.28.44-.81-11.56-2.31.16.65,9.3-6,.42L498,240l-2.22.15.81,11.55-6.29.44Z" transform="translate(-4.94 -4.8)"/></g><g class="cls-2"><path class="cls-3" d="M498.21,262a5.06,5.06,0,0,1,7,7.35,5.06,5.06,0,0,1-7-7.35Z" transform="translate(-4.94 -4.8)"/></g><g class="cls-2"><path class="cls-3" d="M506.23,280.87l6.32.84-3,22.43-6.32-.84,1-7.61-16.58-2.2,1-7.21,16.58,2.21Z" transform="translate(-4.94 -4.8)"/></g><g class="cls-2"><path class="cls-3" d="M487.34,297.7l21.32,11-2.93,13-24,.89,1.62-7.2,3.79-.14,1.94-8.64-3.37-1.75Zm7.72,11.95L493.85,315l6.87-.25.45-2Z" transform="translate(-4.94 -4.8)"/></g></g><g class="cls-2"><path class="cls-3" d="M386,452.54l11.78,19.87-8.75,5.19a14.9,14.9,0,0,1-6.29,2.13,10.83,10.83,0,0,1-6-1.14A12,12,0,0,1,370.56,468a10.77,10.77,0,0,1,1.85-5.79,14.58,14.58,0,0,1,4.88-4.51Zm-3,9.19-2.51,1.5a5.32,5.32,0,0,0-2.49,3.24,5.19,5.19,0,0,0,3.74,6.31,5.17,5.17,0,0,0,4-.66l2.52-1.49Z" transform="translate(-4.94 -4.8)"/></g><g class="cls-2"><path class="cls-3" d="M359.7,467.47l9.06,21.25-11.57,4.94a11.18,11.18,0,0,1-4,.93,9.17,9.17,0,0,1-3.61-.54,8.64,8.64,0,0,1-2.92-1.84,8.85,8.85,0,0,1-2.72-6.37,8.68,8.68,0,0,1,.7-3.39,9,9,0,0,1,2.1-3,11.35,11.35,0,0,1,3.42-2.22l4.89-2.09L353,470.32ZM357.59,481l-4.9,2.09a2.41,2.41,0,0,0-1.35,1.38,2.45,2.45,0,0,0,0,1.95,2.37,2.37,0,0,0,1.38,1.36,2.44,2.44,0,0,0,1.93,0l4.9-2.09Z" transform="translate(-4.94 -4.8)"/></g><polygon class="cls-3" points="324.81 491.9 321.71 482.01 314.37 484.31 312.47 478.23 334.08 471.47 335.98 477.55 328.64 479.84 331.74 489.73 339.07 487.44 340.98 493.51 319.37 500.28 317.47 494.2 324.81 491.9"/><g class="cls-4"><g class="cls-2"><path class="cls-3" d="M316.6,483.13l4.85,22.65-7.12,1.53-3.51-16.4-10.65,2.29-1.34-6.26Z" transform="translate(-4.94 -4.8)"/></g><g class="cls-2"><path class="cls-3" d="M298,487.07l3,22.88-7.2.95-2.17-16.56-10.75,1.41-.83-6.32Z" transform="translate(-4.94 -4.8)"/></g><g class="cls-2"><path class="cls-3" d="M270.57,497.93a5.07,5.07,0,1,1-3.63-1.37A4.86,4.86,0,0,1,270.57,497.93Z" transform="translate(-4.94 -4.8)"/></g><g class="cls-2"><path class="cls-3" d="M253.5,490.35l-1.64,23-12.54-.89a11.25,11.25,0,0,1-4-1,8.94,8.94,0,0,1-3-2.12,8.76,8.76,0,0,1-1.76-3,8.47,8.47,0,0,1-.46-3.51,8.62,8.62,0,0,1,1.33-4.1,8.46,8.46,0,0,1,3.14-2.91l-4.06-7.19,8.39.59,2.77,5.48,4.12.3.37-5.26Zm-8.07,11.11-5.29-.37a2.44,2.44,0,0,0-1.84.61,2.49,2.49,0,0,0-.87,1.75,2.53,2.53,0,0,0,2.35,2.7l5.29.37Z" transform="translate(-4.94 -4.8)"/></g><g class="cls-2"><path class="cls-3" d="M228.91,493.8a12.67,12.67,0,0,1-2.12,12.31,11,11,0,0,1-5.17,3.37,14.07,14.07,0,0,1-6.72.34l-.09,0a14,14,0,0,1-6.2-2.6,11,11,0,0,1-3.7-4.93,11.9,11.9,0,0,1-.52-6.42,12.07,12.07,0,0,1,2.68-5.89,11,11,0,0,1,5.16-3.37,14.16,14.16,0,0,1,6.71-.33l.09,0a14,14,0,0,1,6.13,2.58A11.13,11.13,0,0,1,228.91,493.8ZM222.18,499a5,5,0,0,0-.8-3.93,5.14,5.14,0,0,0-3.51-2.09l-.09,0a5.19,5.19,0,0,0-4,.77,5.46,5.46,0,0,0-1.28,7.34,5.19,5.19,0,0,0,3.51,2.1h.09a5.19,5.19,0,0,0,4-.78A5,5,0,0,0,222.18,499Z" transform="translate(-4.94 -4.8)"/></g></g><g class="cls-4"><g class="cls-2"><path class="cls-3" d="M33,308.25,10.15,312,8.52,301.88a14.9,14.9,0,0,1,.33-6.66,10.86,10.86,0,0,1,3.25-5.14,11.34,11.34,0,0,1,5.82-2.65,11.31,11.31,0,0,1,6.34.68A11,11,0,0,1,29,292a14.78,14.78,0,0,1,2.41,6.21Zm-7.48-6.17-.47-2.9A5.43,5.43,0,0,0,23,295.67a4.89,4.89,0,0,0-3.87-.91,4.94,4.94,0,0,0-3.4,2.08,5.19,5.19,0,0,0-.86,4l.47,2.89Z" transform="translate(-4.94 -4.8)"/></g><g class="cls-2"><path class="cls-3" d="M29.35,285.52l-23,1.68L4.94,268.43,11.2,268l.85,11.53,2.29-.17-.67-9.27,6-.44.68,9.27,2.21-.16-.84-11.52,6.27-.46Z" transform="translate(-4.94 -4.8)"/></g><g class="cls-2"><path class="cls-3" d="M20,256.84a5.06,5.06,0,0,1-7.14-.17,5.05,5.05,0,0,1,3.78-8.54,4.81,4.81,0,0,1,3.54,1.56,4.91,4.91,0,0,1,1.38,3.6A4.85,4.85,0,0,1,20,256.84Z" transform="translate(-4.94 -4.8)"/></g><g class="cls-2"><path class="cls-3" d="M12,238l-6.33-.83,2.92-22.43,6.33.82-1,7.61,16.58,2.16-.93,7.2-16.59-2.15Z" transform="translate(-4.94 -4.8)"/></g><g class="cls-2"><path class="cls-3" d="M30.79,221.16,9.54,210.27l2.89-13,23.87-.93-1.59,7.17-3.78.15L29,212.28,32.38,214Zm-7.71-11.89,1.19-5.34-6.83.27-.45,2Z" transform="translate(-4.94 -4.8)"/></g></g><g class="cls-2"><path class="cls-3" d="M219.53,31.21l-3-22.9,7.2-1,2.2,16.59,10.76-1.43.84,6.33Z" transform="translate(-4.94 -4.8)"/></g><g class="cls-2"><path class="cls-3" d="M246.89,20.26a5.06,5.06,0,0,1-.29-7.14,5.09,5.09,0,0,1,7.16-.29,4.81,4.81,0,0,1,1.61,3.51,5.06,5.06,0,0,1-8.48,3.92Z" transform="translate(-4.94 -4.8)"/></g></g></g></svg>